<svg width="34" height="29" viewBox="0 0 34 29" fill="none" xmlns="http://www.w3.org/2000/svg">
<path d="M1.7 1.8125V0C1.24913 0 0.81673 0.19096 0.497918 0.530869C0.179107 0.870779 0 1.3318 0 1.8125H1.7ZM32.3 1.8125H34C34 1.3318 33.8209 0.870779 33.5021 0.530869C33.1833 0.19096 32.7509 0 32.3 0V1.8125ZM1.7 3.625H32.3V0H1.7V3.625ZM30.6 1.8125V23.5625H34V1.8125H30.6ZM28.9 25.375H5.1V29H28.9V25.375ZM3.4 23.5625V1.8125H0V23.5625H3.4ZM5.1 25.375C4.64913 25.375 4.21673 25.184 3.89792 24.8441C3.57911 24.5042 3.4 24.0432 3.4 23.5625H0C0 25.0046 0.53732 26.3877 1.49376 27.4074C2.45019 28.4271 3.7474 29 5.1 29V25.375ZM30.6 23.5625C30.6 24.0432 30.4209 24.5042 30.1021 24.8441C29.7833 25.184 29.3509 25.375 28.9 25.375V29C30.2526 29 31.5498 28.4271 32.5062 27.4074C33.4627 26.3877 34 25.0046 34 23.5625H30.6Z" fill="#252525"/>
<path d="M1.70001 1.81249L17 18.125L32.3 1.81249" stroke="#252525" stroke-width="2" stroke-linecap="round" stroke-linejoin="round"/>
</svg>
