<svg width="28" height="33" viewBox="0 0 28 33" fill="none" xmlns="http://www.w3.org/2000/svg">
<path fill-rule="evenodd" clip-rule="evenodd" d="M4.66667 9.07674C4.66667 6.66944 5.65 4.36073 7.40034 2.65852C9.15068 0.956297 11.5246 0 14 0C16.4754 0 18.8493 0.956297 20.5997 2.65852C22.35 4.36073 23.3333 6.66944 23.3333 9.07674H24.8889C25.714 9.07674 26.5053 9.39551 27.0888 9.96291C27.6722 10.5303 28 11.2999 28 12.1023V27.2302C28 28.0327 27.6722 28.8022 27.0888 29.3696C26.5053 29.937 25.714 30.2558 24.8889 30.2558H3.11111C2.28599 30.2558 1.49467 29.937 0.911223 29.3696C0.327777 28.8022 0 28.0327 0 27.2302V12.1023C0 11.2999 0.327777 10.5303 0.911223 9.96291C1.49467 9.39551 2.28599 9.07674 3.11111 9.07674H4.66667ZM14 3.02558C15.6502 3.02558 17.2329 3.66311 18.3998 4.79792C19.5667 5.93274 20.2222 7.47187 20.2222 9.07674H7.77778C7.77778 7.47187 8.43333 5.93274 9.60022 4.79792C10.7671 3.66311 12.3498 3.02558 14 3.02558ZM17.1111 18.1535C17.1111 18.6846 16.9673 19.2063 16.6943 19.6662C16.4212 20.1262 16.0285 20.5081 15.5556 20.7736V22.6919C15.5556 23.0931 15.3917 23.4779 15.0999 23.7616C14.8082 24.0453 14.4126 24.2046 14 24.2046C13.5874 24.2046 13.1918 24.0453 12.9001 23.7616C12.6083 23.4779 12.4444 23.0931 12.4444 22.6919V20.7736C11.8514 20.4406 11.3879 19.9266 11.1258 19.3112C10.8638 18.6959 10.8178 18.0137 10.995 17.3704C11.1723 16.7271 11.5629 16.1586 12.1062 15.7532C12.6495 15.3477 13.3152 15.1279 14 15.1279C14.8251 15.1279 15.6164 15.4467 16.1999 16.0141C16.7833 16.5815 17.1111 17.351 17.1111 18.1535Z" fill="#252525"/>
</svg>
