<svg width="26" height="29" viewBox="0 0 26 29" fill="none" xmlns="http://www.w3.org/2000/svg">
<path d="M22.1526 17.3962C23.0845 17.397 23.9779 17.7411 24.6366 18.353C25.2953 18.9649 25.6653 19.7944 25.6653 20.6594V21.9907C25.6653 22.8218 25.3855 23.632 24.8652 24.3083C22.4495 27.4467 18.5055 29 13.1614 29C7.81417 29 3.87173 27.4453 1.46221 24.3069C0.943622 23.631 0.665047 22.8219 0.665283 21.9922V20.6579C0.665697 19.793 1.03608 18.9636 1.69505 18.352C2.35402 17.7404 3.24765 17.3966 4.17956 17.3962H22.1526ZM13.1598 0C14.1858 -1.419e-08 15.2018 0.187564 16.1497 0.551984C17.0976 0.916403 17.9589 1.45054 18.6844 2.1239C19.4099 2.79726 19.9854 3.59665 20.3781 4.47644C20.7707 5.35623 20.9728 6.29918 20.9728 7.25145C20.9728 8.20372 20.7707 9.14667 20.3781 10.0265C19.9854 10.9062 19.4099 11.7056 18.6844 12.379C17.9589 13.0524 17.0976 13.5865 16.1497 13.9509C15.2018 14.3153 14.1858 14.5029 13.1598 14.5029C11.0877 14.5029 9.10042 13.7389 7.6352 12.379C6.16998 11.0191 5.34683 9.17465 5.34683 7.25145C5.34683 5.32825 6.16998 3.48381 7.6352 2.1239C9.10042 0.76399 11.0877 0 13.1598 0Z" fill="#252525"/>
</svg>
